<svg width="84" height="82" viewBox="0 0 84 82" fill="none" xmlns="http://www.w3.org/2000/svg">
<path fill-rule="evenodd" clip-rule="evenodd" d="M76.8741 66.7119L52.1818 55.9091V37.2727H29.8182V55.9091L29.5853 56.0254L5.13171 66.7119C2.29758 67.9505 0 71.4698 0 74.5626V80.1309C0 81.1631 0.838318 82 1.86682 82H80.1333C81.1643 82 82 81.184 82 80.1309V74.5626C82 71.4654 79.7097 67.9525 76.8741 66.7119Z" fill="#FFC8B0"/>
<path d="M41 48.4545C29.6962 48.4545 20.5 39.2583 20.5 27.9545V20.5C20.5 9.19624 29.6962 0 41 0C52.3038 0 61.5 9.19624 61.5 20.5V27.9545C61.5 39.2583 52.3038 48.4545 41 48.4545Z" fill="#FF9464"/>
<circle cx="68.9545" cy="61.5" r="14.9091" fill="#FF7261"/>
<path d="M74.5455 59.6363H70.8182V55.909C70.8182 54.8797 69.9838 54.0454 68.9545 54.0454C67.9252 54.0454 67.0909 54.8797 67.0909 55.909V59.6363H63.3636C62.3343 59.6363 61.5 60.4707 61.5 61.5C61.5 62.5291 62.3343 63.3636 63.3636 63.3636H67.0909V67.0909C67.0909 68.1201 67.9252 68.9545 68.9545 68.9545C69.9838 68.9545 70.8182 68.1201 70.8182 67.0909V63.3636H74.5455C75.5748 63.3636 76.4091 62.5291 76.4091 61.5C76.4091 60.4707 75.5748 59.6363 74.5455 59.6363Z" fill="white"/>
</svg>
