<svg width="46" height="46" viewBox="0 0 46 46" fill="none" xmlns="http://www.w3.org/2000/svg">
<path d="M10.0001 24.864V2H36.0001V15V24.864L45.2081 19.906L38.0001 14.5V1C38.0001 0.447 37.5531 0 37.0001 0H9.00007C8.44707 0 8.00007 0.447 8.00007 1V14.673L0.799072 19.91L10.0001 24.864Z" fill="#FF9464"/>
<path d="M23.474 33.881C23.178 34.04 22.823 34.04 22.527 33.881L0 21.751V44C0 45.105 0.895 46 2 46H44C45.105 46 46 45.105 46 44V21.751L23.474 33.881Z" fill="#FF9464"/>
<path d="M19.707 10.293C19.316 9.902 18.684 9.902 18.293 10.293L14.293 14.293C13.902 14.684 13.902 15.316 14.293 15.707L18.293 19.707C18.488 19.902 18.744 20 19 20C19.256 20 19.512 19.902 19.707 19.707C20.098 19.316 20.098 18.684 19.707 18.293L16.414 15L19.707 11.707C20.098 11.316 20.098 10.684 19.707 10.293Z" fill="#FF7261"/>
<path d="M26.293 19.707C26.488 19.902 26.744 20 27 20C27.256 20 27.512 19.902 27.707 19.707L31.707 15.707C32.098 15.316 32.098 14.684 31.707 14.293L27.707 10.293C27.316 9.902 26.684 9.902 26.293 10.293C25.902 10.684 25.902 11.316 26.293 11.707L29.586 15L26.293 18.293C25.902 18.684 25.902 19.316 26.293 19.707Z" fill="#FF7261"/>
</svg>
