<svg width="49" height="48" viewBox="0 0 49 48" fill="none" xmlns="http://www.w3.org/2000/svg">
<path d="M46.8775 34.049C46.2361 34.049 45.7015 34.5835 45.7015 35.225V40.1426C45.7015 43.1893 43.2427 45.6481 40.196 45.6481H34.8508C34.2093 45.6481 33.6748 46.1826 33.6748 46.8241C33.6748 47.4655 34.2093 48 34.8508 48H40.196C44.5256 48 48.0534 44.4722 48.0534 40.1426V35.225C48.0534 34.5835 47.5189 34.049 46.8775 34.049Z" fill="#FF9464"/>
<path d="M40.196 0H34.8508C34.2093 0 33.6748 0.534521 33.6748 1.17595C33.6748 1.81737 34.2093 2.35189 34.8508 2.35189H40.196C43.2427 2.35189 45.7015 4.81069 45.7015 7.85746V13.5768C45.7015 14.2183 46.2361 14.7528 46.8775 14.7528C47.5189 14.7528 48.0534 14.2183 48.0534 13.5768V7.85746C48.0534 3.52784 44.5256 0 40.196 0Z" fill="#FF9464"/>
<path d="M34.1558 23.412C34.9576 23.412 35.599 22.7706 35.6525 21.9688V18.1203C35.6525 17.265 35.0111 16.6236 34.1558 16.6236C33.3006 16.6236 32.6592 17.3185 32.6592 18.1203V21.9154C32.6592 22.7706 33.3541 23.412 34.1558 23.412Z" fill="#FF9464"/>
<path d="M31.3766 33.7818C29.4523 35.706 26.8866 36.7751 24.2675 36.7751H23.8398C21.1672 36.7751 18.655 35.706 16.7307 33.7818C16.3031 33.3007 15.5548 33.3007 15.0737 33.7818C14.5926 34.2094 14.5926 34.9577 15.0737 35.4388C17.479 37.8441 20.5793 39.127 23.8398 39.127H24.2675C27.528 39.127 30.6817 37.8441 33.0336 35.4388C33.5147 35.0112 33.5147 34.2628 33.0336 33.7818C32.606 33.3007 31.8577 33.3007 31.3766 33.7818Z" fill="#FF9464"/>
<path d="M21.1134 30.5212H21.3807C23.7861 30.5212 25.7103 28.5969 25.7103 26.245V18.1203C25.7103 17.4789 25.1758 16.9443 24.5344 16.9443C23.893 16.9443 23.3584 17.4789 23.3584 18.1203V26.1916C23.3584 27.314 22.4497 28.1693 21.3807 28.1693H21.1134C20.472 28.1693 19.9375 28.7038 19.9375 29.3452C19.9375 29.9867 20.472 30.5212 21.1134 30.5212Z" fill="#FF9464"/>
<path d="M13.2027 16.6236C12.3475 16.6236 11.7061 17.3185 11.7061 18.1203V21.9154C11.7061 22.7706 12.4009 23.412 13.2027 23.412C14.0579 23.412 14.6994 22.7706 14.6994 21.9688V18.1203C14.6994 17.265 14.0045 16.6236 13.2027 16.6236Z" fill="#FF7261"/>
<path d="M1.22917 14.7528C1.87059 14.7528 2.40512 14.2183 2.40512 13.5768V7.85746C2.40512 4.81069 4.86391 2.35189 7.91068 2.35189H13.2559C13.8973 2.35189 14.4318 1.81737 14.4318 1.17595C14.4318 0.534521 13.8973 0 13.2559 0H7.91068C3.58106 0 0.0532227 3.52784 0.0532227 7.85746V13.5768C0.0532227 14.2183 0.587744 14.7528 1.22917 14.7528Z" fill="#FF9464"/>
<path d="M13.2027 45.6481H7.85746C4.81069 45.6481 2.35189 43.1893 2.35189 40.1426V35.225C2.35189 34.5835 1.81737 34.049 1.17595 34.049C0.534521 34.049 0 34.5835 0 35.225V40.1426C0 44.4722 3.52784 48 7.85746 48H13.2027C13.8976 48 14.3786 47.4655 14.3786 46.8241C14.3786 46.1826 13.8441 45.6481 13.2027 45.6481Z" fill="#FF9464"/>
</svg>
