<svg width="60" height="56" viewBox="0 0 60 56" fill="none" xmlns="http://www.w3.org/2000/svg">
<path d="M59 37H40C39.4477 37 39 37.4477 39 38V44H21V38C21 37.4477 20.5523 37 20 37H1C0.447715 37 0 37.4477 0 38V54C0 55.1046 0.89543 56 2 56H58C59.1046 56 60 55.1046 60 54V38C60 37.4477 59.5523 37 59 37Z" fill="#FF9464"/>
<path fill-rule="evenodd" clip-rule="evenodd" d="M9 0H51C52.1046 0 53 0.89543 53 2V35H40C38.3431 35 37 36.3431 37 38V42H23V38C23 36.3431 21.6569 35 20 35H7V2C7 0.89543 7.89543 0 9 0ZM16 18L26 28L44 10L42 8L26 23L18 16L16 18Z" fill="#FF7261"/>
</svg>
