<svg width="46" height="44" viewBox="0 0 46 44" fill="none" xmlns="http://www.w3.org/2000/svg">
<path d="M22 37.6679C21.0914 36.7606 19.7327 36.4754 18.536 36.9409C19.0436 35.6661 18.769 34.2127 17.8313 33.211C16.8936 32.2092 15.4615 31.8394 14.156 32.2619C14.8411 30.9298 14.6026 29.3094 13.5626 28.2312C12.5227 27.153 10.9119 26.8562 9.55597 27.4929C10.1183 25.9394 9.52554 24.2039 8.13047 23.3189C6.73539 22.4339 4.91273 22.6372 3.74697 23.8079L3.03397 24.5209C1.86332 25.6867 1.66 27.5093 2.54498 28.9044C3.42996 30.2995 5.1655 30.8922 6.71897 30.3299C6.11609 31.6338 6.36779 33.1733 7.35452 34.2173C8.34126 35.2613 9.86419 35.5994 11.2 35.0709C10.6833 36.3982 11.0094 37.9057 12.0284 38.9008C13.0475 39.8959 14.5624 40.186 15.877 39.6379C15.3535 41.0632 15.8908 42.6608 17.1691 43.4802C18.4474 44.2996 20.1234 44.1207 21.2 43.0499L22 42.2559C22.6084 41.6475 22.9503 40.8223 22.9503 39.9619C22.9503 39.1015 22.6084 38.2763 22 37.6679Z" fill="#FF9464"/>
<path d="M34.815 15.441C33.7083 15.811 32.549 15.9998 31.382 16C29.3514 16.0135 27.3602 15.4399 25.648 14.348L18.659 18.7C16.6233 19.9711 13.9595 19.5258 12.4477 17.6619C10.936 15.7979 11.0502 13.0996 12.714 11.37L20.545 3.21503C20.735 3.02503 20.936 2.85103 21.137 2.67703C20.0598 2.23034 18.9052 2.00029 17.739 2.00003H14.414L12.707 0.293031C12.3165 -0.0973513 11.6835 -0.0973513 11.293 0.293031L0.293031 11.293C-0.0973513 11.6835 -0.0973513 12.3165 0.293031 12.707L2.00003 14.414V17.875C2.03372 19.2462 2.40428 20.5879 3.07903 21.782C4.60155 20.7077 6.56418 20.4766 8.29465 21.1677C10.0251 21.8588 11.2885 23.3785 11.652 25.206C14.2684 25.5023 16.3077 27.6112 16.516 30.236C18.7231 30.7595 20.389 32.5743 20.722 34.818C22.5987 35.1891 24.1236 36.5541 24.6995 38.3784C25.2754 40.2026 24.8105 42.1957 23.487 43.577C24.9125 43.9638 26.4358 43.5495 27.469 42.494C28.2057 41.7539 28.6366 40.7635 28.676 39.72C29.9084 40.6935 31.6472 40.6962 32.8826 39.7267C34.1181 38.7571 34.5287 37.0675 33.876 35.639C35.3567 36.1805 37.0163 35.8383 38.1621 34.7554C39.3079 33.6725 39.7431 32.0349 39.286 30.526C41.0633 30.7646 42.7942 29.8408 43.5852 28.2315C44.3763 26.6223 44.0505 24.6875 42.776 23.426L34.815 15.441Z" fill="#FF7261"/>
<path d="M45.707 11.293L34.707 0.293031C34.3165 -0.0973513 33.6835 -0.0973513 33.293 0.293031L31.586 2.00003H28.261C25.9078 2.00082 23.6511 2.93601 21.987 4.60003L14.156 12.757C13.6096 13.3262 13.3334 14.1023 13.3972 14.8887C13.4611 15.6751 13.859 16.3965 14.49 16.87C15.4007 17.5507 16.6358 17.6023 17.6 17L25.76 11.915C27.3128 13.2796 29.315 14.0221 31.382 14C32.738 14.0052 34.0764 13.6929 35.29 13.088L44 21.825V14.414L45.707 12.707C46.0974 12.3165 46.0974 11.6835 45.707 11.293Z" fill="#FF9464"/>
</svg>
