<svg width="49" height="48" viewBox="0 0 49 48" fill="none" xmlns="http://www.w3.org/2000/svg">
<path d="M8.02357 6.13552C3.17736 10.5343 0.134155 16.8839 0.134155 23.9442C0.134155 33.5022 5.71131 41.7566 13.7885 45.633L15.3575 36.8912L8.02357 6.13552Z" fill="#FF7261"/>
<path d="M27.523 0.13641L19.1777 47.4644C20.7914 47.8055 22.4634 47.9886 24.1787 47.9886C25.3637 47.9886 26.5275 47.8993 27.6666 47.7334L35.5937 2.77797C33.1308 1.44714 30.4082 0.538047 27.523 0.13641Z" fill="#FF7261"/>
<path d="M21.8831 0.0113869C18.6377 0.319033 15.5808 1.27077 12.8408 2.7389L17.6341 24.9401L21.8831 0.0113869Z" fill="#FF9464"/>
<path d="M48.2233 23.9442C48.2233 17.0454 45.3131 10.8295 40.6591 6.44473L33.6266 46.0588C42.209 42.3876 48.2233 33.869 48.2233 23.9442Z" fill="#FF7261"/>
</svg>
