<svg width="200" height="166" viewBox="0 0 200 166" fill="none" xmlns="http://www.w3.org/2000/svg">
<path d="M11.214 142.15C12.0719 143.518 12.8416 144.76 13.5271 145.875C14.2106 146.987 14.796 148.058 15.2819 149.085C15.7654 150.11 16.1238 151.168 16.3511 152.253C16.5784 153.338 16.6935 154.564 16.6935 155.933V156.103C16.6935 157.42 16.4938 158.66 16.0942 159.829C15.6945 161 15.0955 162.069 14.2965 163.04C13.4975 163.953 12.5847 164.639 11.5564 165.093C10.5304 165.551 9.47288 165.778 8.38968 165.778C7.30483 165.778 6.24925 165.551 5.22296 165.093C4.19434 164.639 3.27987 163.953 2.48286 163.04H2.39701C1.65491 162.241 1.11248 161.327 0.769717 160.299C0.428952 159.272 0.2 158.187 0.0861897 157.047H5.47987C5.47987 157.447 5.56406 157.817 5.73644 158.16C5.85025 158.5 6.02063 158.845 6.24958 159.186C6.87621 159.872 7.58902 160.214 8.39002 160.214C9.18902 160.214 9.87255 159.872 10.4446 159.186C10.615 158.959 10.8146 158.618 11.0439 158.16C11.1574 157.588 11.2143 157.188 11.2143 156.961C11.2143 155.477 11.0872 154.235 10.8306 153.236C10.574 152.237 10.2156 151.282 9.7594 150.369C9.30316 149.456 8.77604 148.528 8.17704 147.586C7.5777 146.644 6.90582 145.547 6.16373 144.29C5.4802 143.091 4.79501 141.893 4.10915 140.694C3.42562 139.496 2.78336 138.326 2.18403 137.185C1.58436 136.043 1.08286 134.917 0.685524 133.803C0.284193 132.69 0.0565724 131.619 0 130.593V130.166C0 128.854 0.2 127.582 0.599334 126.354C0.998669 125.128 1.598 124.03 2.39701 123.059L2.73977 122.716C3.47987 121.86 4.35141 121.22 5.35042 120.789C6.34942 120.362 7.36173 120.148 8.39002 120.148C9.4183 120.148 10.415 120.362 11.3864 120.789C12.3561 121.22 13.2116 121.86 13.9541 122.716H14.0403L14.2968 123.059C15.6679 124.6 16.4376 126.457 16.6077 128.623H11.214C11.1005 127.882 10.8439 127.311 10.4443 126.911C9.87221 126.225 9.18902 125.885 8.38968 125.885C7.87654 125.885 7.47521 125.971 7.19101 126.141C6.90516 126.312 6.6193 126.57 6.33511 126.911C5.76339 127.597 5.4792 128.339 5.4792 129.138L5.56339 129.994C5.67721 131.251 6.10582 132.72 6.84792 134.402C7.58835 136.087 8.8183 138.327 10.5298 141.121C10.8735 141.58 11.1005 141.922 11.214 142.15Z" fill="#FF9464"/>
<path fill-rule="evenodd" clip-rule="evenodd" d="M43.2665 165.608L36.5042 120.148H30.0822L23.3195 165.608H28.9694L29.6552 160.643H36.9311L37.7025 165.608H43.2665ZM33.2509 129.651L35.9907 154.306H30.5111L33.2509 129.651Z" fill="#FF9464"/>
<path fill-rule="evenodd" clip-rule="evenodd" d="M67.5368 134.874C67.8795 133.562 68.0499 132.249 68.0499 130.935C68.0499 129.566 67.7937 128.254 67.2809 126.997C66.8809 125.857 66.1684 124.714 65.1401 123.574C62.97 121.234 60.3165 120.062 57.179 120.062H51.0998L51.186 165.693H56.6635V160.044V143.605H57.2626C59.6599 143.605 61.5441 143.037 62.9128 141.893C64.2838 140.753 65.3394 139.612 66.0819 138.47C66.4792 137.956 66.779 137.385 66.9807 136.758C67.1804 136.129 67.3664 135.5 67.5368 134.874ZM56.7497 125.626H57.0063H58.6336C59.8319 125.626 60.8017 126.127 61.5441 127.126C62.2845 128.125 62.6858 129.394 62.7424 130.935V131.192C62.7424 131.533 62.6858 132.062 62.572 132.775C62.4566 133.491 62.2429 134.218 61.9298 134.96C61.6143 135.7 61.1581 136.358 60.5587 136.926C59.9594 137.498 59.1467 137.784 58.1205 137.784H56.7497V125.626Z" fill="#FF9464"/>
<path d="M81.389 120.062V165.693H75.9091V120.062H81.389Z" fill="#FF9464"/>
<path d="M105.065 160.128L104.981 165.693H90.2552H89.3131V120.062H90.2552H105.065V125.712H94.8775V135.644H102.925V141.294H94.8775V160.129H105.065V160.128Z" fill="#FF9464"/>
<path d="M135.416 120.232V165.608H129.68L119.408 134.445V165.608H113.671V120.148H119.408L129.68 145.232V120.232H135.416Z" fill="#FF9464"/>
<path d="M149.788 128.781V156.903C149.788 157.701 150.074 158.44 150.644 159.125C151.273 159.809 152.043 160.122 152.957 160.065C153.868 160.009 154.526 159.782 154.926 159.383C155.153 159.156 155.366 158.869 155.568 158.526C155.768 158.186 155.839 157.615 155.782 156.817V156.731L161.262 157.928V158.784C161.262 159.696 161.089 160.55 160.746 161.348C160.347 162.147 159.834 162.859 159.207 163.485C158.293 164.283 157.294 164.852 156.211 165.194C155.126 165.536 154.041 165.663 152.958 165.577C151.873 165.493 150.817 165.21 149.789 164.725C148.763 164.24 147.848 163.541 147.049 162.628L146.793 162.289C145.022 160.353 144.139 158.014 144.139 155.279V130.404C144.139 127.671 145.022 125.334 146.793 123.396L147.049 123.054C147.848 122.145 148.763 121.445 149.789 120.96C150.817 120.477 151.873 120.189 152.958 120.105C154.041 120.021 155.126 120.148 156.211 120.491C157.294 120.831 158.293 121.402 159.207 122.199C159.834 122.827 160.347 123.539 160.746 124.337C161.089 125.078 161.262 125.932 161.262 126.9V127.328L155.782 128.355C155.725 127.727 155.623 127.272 155.482 126.986C155.339 126.701 155.153 126.474 154.926 126.302C154.526 125.903 153.869 125.676 152.958 125.617C152.043 125.562 151.273 125.875 150.645 126.56C150.075 127.242 149.788 127.983 149.788 128.781Z" fill="#FF9464"/>
<path d="M181.251 120.195L177.244 143.701L172.169 120.195H166.827L175.107 154.919L173.238 165.336H178.606L186.566 120.195H181.251Z" fill="#FF9464"/>
<path d="M191.935 165.336H186.62L194.579 120.195H199.948L191.935 165.336Z" fill="#FF7261"/>
<path d="M69.9746 11.4508C60.93 19.6604 55.2504 31.5108 55.2504 44.6875C55.2504 62.5258 65.6592 77.9313 80.7338 85.1658L83.6621 68.8508L69.9746 11.4508Z" fill="#FF7261"/>
<path d="M106.367 0.254585L90.7917 88.5838C93.8033 89.2204 96.9237 89.5621 100.125 89.5621C102.337 89.5621 104.509 89.3954 106.635 89.0858L121.429 5.18459C116.832 2.70083 111.751 1.00417 106.367 0.254585Z" fill="#FF7261"/>
<path d="M95.8408 0.0212479C89.7837 0.595415 84.0787 2.37166 78.965 5.11166L87.9108 46.5462L95.8408 0.0212479Z" fill="#FF9464"/>
<path d="M145 44.6875C145 31.8121 139.569 20.2112 130.883 12.0279L117.758 85.9604C133.775 79.1087 145 63.2104 145 44.6875Z" fill="#FF7261"/>
</svg>
