<svg width="101" height="24" viewBox="0 0 101 24" fill="none" xmlns="http://www.w3.org/2000/svg">
<path d="M5.64246 11.145C6.07412 11.8336 6.46141 12.4585 6.80634 13.0191C7.15027 13.5789 7.4448 14.1179 7.68927 14.6343C7.93256 15.1505 8.11289 15.6826 8.22726 16.2285C8.34162 16.7745 8.39955 17.3914 8.39955 18.0802V18.166C8.39955 18.8282 8.29909 19.4521 8.09799 20.0403C7.89689 20.6295 7.5955 21.1674 7.19347 21.6561C6.79144 22.1154 6.33215 22.4605 5.81475 22.6891C5.29853 22.9195 4.7664 23.034 4.22138 23.034C3.67552 23.034 3.14439 22.9195 2.628 22.6891C2.11044 22.4605 1.65031 22.1154 1.24928 21.6561H1.20608C0.832688 21.2543 0.559758 20.7941 0.387293 20.2767C0.215833 19.7602 0.100633 19.2143 0.0433674 18.6408H2.75727C2.75727 18.8419 2.79963 19.0281 2.88636 19.2006C2.94363 19.3719 3.02936 19.5455 3.14456 19.7168C3.45985 20.0619 3.81851 20.2344 4.22154 20.2344C4.62357 20.2344 4.9675 20.0619 5.25533 19.7168C5.34106 19.6026 5.44153 19.4312 5.55689 19.2006C5.61399 18.9128 5.64262 18.7118 5.64262 18.5975C5.64262 17.8505 5.57866 17.2258 5.44956 16.7233C5.32047 16.2206 5.14013 15.7397 4.91057 15.2806C4.681 14.8213 4.41578 14.3543 4.11438 13.8803C3.81282 13.4063 3.47475 12.8545 3.10136 12.2219C2.75743 11.6187 2.41267 11.0157 2.06757 10.4126C1.72365 9.80944 1.40048 9.22122 1.09892 8.64673C0.797191 8.0724 0.544856 7.50578 0.34493 6.94501C0.142995 6.38526 0.0284651 5.84626 0 5.32987V5.11504C0 4.45482 0.100633 3.81519 0.301563 3.19733C0.502493 2.58047 0.804056 2.02775 1.20608 1.53899L1.37855 1.36669C1.75094 0.936028 2.18947 0.61387 2.69213 0.397033C3.19479 0.182205 3.70415 0.074707 4.22154 0.074707C4.73894 0.074707 5.24043 0.182205 5.72919 0.397033C6.21712 0.61387 6.64761 0.936028 7.02117 1.36669H7.06454L7.19364 1.53899C7.8835 2.31458 8.27079 3.24873 8.35635 4.33861H5.64246C5.58536 3.96606 5.45626 3.67856 5.25516 3.47729C4.96733 3.13236 4.62357 2.96107 4.22138 2.96107C3.96318 2.96107 3.76125 3.00444 3.61825 3.09017C3.47442 3.1759 3.33059 3.306 3.18759 3.47746C2.89993 3.82256 2.75693 4.19579 2.75693 4.59781L2.79929 5.02847C2.85656 5.66107 3.07222 6.40016 3.44562 7.24658C3.81818 8.09417 4.43704 9.22139 5.2982 10.6276C5.47116 10.8581 5.58536 11.0306 5.64246 11.145Z" fill="#FF9464"/>
<path fill-rule="evenodd" clip-rule="evenodd" d="M21.7702 22.9483L18.3676 0.074707H15.1363L11.7335 22.9483H14.5763L14.9214 20.4502H18.5824L18.9705 22.9483H21.7702ZM16.7307 4.85601L18.1092 17.2616H15.3521L16.7307 4.85601Z" fill="#FF9464"/>
<path fill-rule="evenodd" clip-rule="evenodd" d="M33.982 7.48392C34.1545 6.8237 34.2402 6.16331 34.2402 5.50208C34.2402 4.81339 34.1113 4.15317 33.8532 3.52057C33.652 2.94708 33.2935 2.37175 32.7761 1.7981C31.6842 0.620645 30.349 0.03125 28.7704 0.03125H25.7115L25.7549 22.9907H28.511V20.1487V11.8771H28.8124C30.0187 11.8771 30.9667 11.5913 31.6554 11.0156C32.3453 10.4421 32.8764 9.86779 33.2499 9.2933C33.4499 9.03493 33.6007 8.74727 33.7022 8.43181C33.8027 8.11551 33.8963 7.79921 33.982 7.48392ZM28.5544 2.83071H28.6835H29.5023C30.1052 2.83071 30.5931 3.08305 30.9667 3.58554C31.3393 4.0882 31.5412 4.72665 31.5697 5.50208V5.63134C31.5697 5.80297 31.5412 6.06887 31.4839 6.4277C31.4258 6.7882 31.3183 7.15389 31.1608 7.52729C31.002 7.89968 30.7725 8.23088 30.4709 8.5167C30.1694 8.80437 29.7605 8.9482 29.2441 8.9482H28.5544V2.83071Z" fill="#FF9464"/>
<path d="M40.952 0.03125V22.9907H38.1947V0.03125H40.952Z" fill="#FF9464"/>
<path d="M52.8649 20.1909L52.8226 22.9907H45.4131H44.9391V0.03125H45.4131H52.8649V2.87425H47.7389V7.87138H51.788V10.7144H47.7389V20.1912H52.8649V20.1909Z" fill="#FF9464"/>
<path d="M68.1364 0.11707V22.9484H65.25L60.0814 7.26834V22.9484H57.1951V0.074707H60.0814L65.25 12.696V0.11707H68.1364Z" fill="#FF9464"/>
<path d="M75.3679 4.41848V18.5687C75.3679 18.97 75.5118 19.3419 75.7986 19.6863C76.1149 20.0308 76.5022 20.1882 76.9625 20.1595C77.4206 20.1311 77.7518 20.0169 77.9529 19.8161C78.0673 19.7019 78.1746 19.5574 78.2761 19.3853C78.3765 19.2141 78.4122 18.9268 78.3836 18.5253V18.4819L81.1408 19.0842V19.515C81.1408 19.9735 81.0541 20.4035 80.8816 20.8048C80.6805 21.2072 80.4225 21.5654 80.107 21.8803C79.6469 22.2817 79.1442 22.568 78.5994 22.7401C78.0535 22.9123 77.5075 22.9762 76.9626 22.933C76.4166 22.8907 75.8855 22.7482 75.3683 22.504C74.852 22.2599 74.3917 21.9086 73.9897 21.4492L73.8606 21.2782C72.9697 20.3042 72.5253 19.1274 72.5253 17.751V5.2351C72.5253 3.85973 72.9697 2.68412 73.8606 1.70894L73.9897 1.53681C74.3917 1.07936 74.852 0.72706 75.3683 0.483097C75.8857 0.239971 76.4168 0.095469 76.9626 0.0531062C77.5075 0.0109109 78.0535 0.0747062 78.5994 0.247004C79.1442 0.418129 79.6469 0.70546 80.107 1.10682C80.4225 1.42278 80.6805 1.78077 80.8816 2.1823C81.0541 2.55519 81.1408 2.98518 81.1408 3.4721V3.6876L78.3836 4.20399C78.3551 3.88819 78.3037 3.65897 78.2329 3.51547C78.1609 3.3718 78.0673 3.25778 77.9531 3.17104C77.752 2.97028 77.4209 2.85625 76.9626 2.82661C76.5023 2.79899 76.1151 2.95638 75.7988 3.30081C75.5119 3.64423 75.3679 4.01712 75.3679 4.41848Z" fill="#FF9464"/>
<path d="M91.1986 0.0981445L89.1826 11.9252L86.6291 0.0981445H83.9412L88.1075 17.5699L87.1668 22.8113H89.8681L93.8731 0.0981445H91.1986Z" fill="#FF9464"/>
<path d="M96.5744 22.8113H93.9L97.9049 0.0981445H100.606L96.5744 22.8113Z" fill="#FF7261"/>
</svg>
