<svg width="43" height="46" viewBox="0 0 43 46" fill="none" xmlns="http://www.w3.org/2000/svg">
<path fill-rule="evenodd" clip-rule="evenodd" d="M39 0H19C16.7909 0 15 1.79086 15 4V24C15 24.5523 15.4477 25 16 25C16.2085 25.0005 16.4119 24.9351 16.581 24.813L23.32 20H39C41.2091 20 43 18.2091 43 16V4C43 1.79086 41.2091 0 39 0ZM28 14H22C21.4477 14 21 13.5523 21 13C21 12.4477 21.4477 12 22 12H28C28.5523 12 29 12.4477 29 13C29 13.5523 28.5523 14 28 14ZM22 8H36C36.5523 8 37 7.55228 37 7C37 6.44772 36.5523 6 36 6H22C21.4477 6 21 6.44772 21 7C21 7.55228 21.4477 8 22 8Z" fill="#FF7261"/>
<path d="M27 22V38C27 38.5523 26.5523 39 26 39H3C2.44772 39 2 38.5523 2 38V10C2 9.44772 2.44772 9 3 9H13V4H4C1.79086 4 0 5.79086 0 8V42C0 44.2091 1.79086 46 4 46H25C27.2091 46 29 44.2091 29 42V22H27Z" fill="#FF9464"/>
</svg>
