<svg width="46" height="46" viewBox="0 0 46 46" fill="none" xmlns="http://www.w3.org/2000/svg">
<path d="M33.5791 2.586C25.9222 -1.35064 16.7106 -0.697152 9.6861 4.281L6.4221 1.512C6.14229 1.27462 5.75495 1.20956 5.41293 1.34248C5.07092 1.47541 4.82918 1.78497 4.7831 2.149L3.3931 13.2C3.35723 13.4847 3.44541 13.7711 3.63521 13.9864C3.82501 14.2016 4.09813 14.325 4.3851 14.325C4.47601 14.3246 4.56646 14.3121 4.6541 14.288L15.5061 11.264C15.8628 11.1648 16.1355 10.8767 16.2149 10.515C16.2943 10.1534 16.1674 9.77751 15.8851 9.538L12.8431 6.96C18.6891 3.25137 26.0912 3.02161 32.156 6.36053C38.2208 9.69944 41.9853 16.0768 41.9781 23C41.9781 24.1046 42.8735 25 43.9781 25C45.0827 25 45.9781 24.1046 45.9781 23C46.004 14.4076 41.2159 6.52429 33.5791 2.586Z" fill="#FF9464"/>
<path d="M29.246 40.906C26.7247 41.7879 24.0453 42.126 21.384 41.898C20.2833 41.8052 19.3158 42.6223 19.223 43.723C19.1302 44.8237 19.9473 45.7912 21.048 45.884C21.704 45.9387 22.3577 45.966 23.009 45.966C25.5805 45.9661 28.1336 45.5327 30.561 44.684C31.6043 44.3209 32.1556 43.1808 31.7925 42.1375C31.4294 41.0942 30.2893 40.5429 29.246 40.906Z" fill="#FF7261"/>
<path d="M43.0998 29.3C42.6107 29.0944 42.06 29.0915 41.5689 29.292C41.0777 29.4925 40.6863 29.8799 40.4808 30.369C40.2808 30.834 40.0708 31.291 39.8408 31.736C38.7899 33.7652 37.3786 35.5862 35.6758 37.11C35.1331 37.5842 34.8875 38.3136 35.0328 39.0194C35.1782 39.7252 35.692 40.2983 36.3778 40.5195C37.0636 40.7407 37.8154 40.5759 38.3458 40.088C40.4118 38.2402 42.1244 36.0319 43.3998 33.571C43.6788 33.03 43.9398 32.471 44.1738 31.915C44.5987 30.8963 44.118 29.726 43.0998 29.3Z" fill="#FF7261"/>
<path d="M4.0271 23C4.0271 21.8954 3.13167 21 2.0271 21C0.92253 21 0.0270996 21.8954 0.0270996 23C0.0284727 25.6099 0.476611 28.2003 1.3521 30.659C1.72985 31.6884 2.86598 32.2216 3.8992 31.8546C4.93242 31.4875 5.47744 30.357 5.1211 29.32C4.39816 27.2913 4.02814 25.1537 4.0271 23Z" fill="#FF7261"/>
<path d="M14.26 39.832C12.2294 38.7762 10.4077 37.3598 8.88403 35.652C8.14811 34.828 6.88354 34.7566 6.05953 35.4925C5.23552 36.2284 5.16411 37.493 5.90003 38.317C7.74558 40.3859 9.95262 42.1012 12.413 43.379C13.0489 43.7315 13.8261 43.7112 14.4426 43.3258C15.0592 42.9405 15.4181 42.2509 15.3799 41.5248C15.3418 40.7988 14.9126 40.1506 14.259 39.832H14.26Z" fill="#FF7261"/>
</svg>
