<svg xmlns="http://www.w3.org/2000/svg" width="199.948" height="204.979" viewBox="0 0 199.948 204.979">
  <g id="Group_1" data-name="Group 1" transform="translate(-87 -202.021)">
    <text id="Power_to_the_people" data-name="Power to the people" transform="translate(188 403)" fill="#fff7e5"
          font-size="14" font-family="SegoeUI, Segoe UI" letter-spacing="0.021em">
      <tspan x="-65.184" y="0">Power to the people</tspan>
    </text>
    <g id="Logo" transform="translate(87 202)">
      <g id="Group" transform="translate(0 120)">
        <path id="Path"
              d="M11.214,22q1.287,2.053,2.313,3.725a33.753,33.753,0,0,1,1.755,3.21A14.3,14.3,0,0,1,16.351,32.1a18.024,18.024,0,0,1,.342,3.68v.17a11.429,11.429,0,0,1-.6,3.725,10.207,10.207,0,0,1-1.8,3.211,7.837,7.837,0,0,1-2.74,2.053,7.657,7.657,0,0,1-6.333,0,7.816,7.816,0,0,1-2.74-2.053H2.4A7.442,7.442,0,0,1,.77,40.15,15.037,15.037,0,0,1,.086,36.9H5.48a2.437,2.437,0,0,0,.257,1.112,4.274,4.274,0,0,0,.513,1.026,2.835,2.835,0,0,0,2.14,1.029,2.593,2.593,0,0,0,2.055-1.029,7.015,7.015,0,0,0,.6-1.026,7.293,7.293,0,0,0,.17-1.2,15.253,15.253,0,0,0-.384-3.725,14.41,14.41,0,0,0-1.071-2.867,31.167,31.167,0,0,0-1.582-2.783q-.9-1.413-2.013-3.3-1.025-1.8-2.055-3.6T2.184,17.036a26.224,26.224,0,0,1-1.5-3.382A11.3,11.3,0,0,1,0,10.444v-.427A12.25,12.25,0,0,1,.6,6.206a10.026,10.026,0,0,1,1.8-3.3l.343-.342A7.173,7.173,0,0,1,5.35.641,7.667,7.667,0,0,1,8.39,0a7.3,7.3,0,0,1,5.564,2.568h.086l.257.342a9.222,9.222,0,0,1,2.311,5.564H11.214a2.99,2.99,0,0,0-.77-1.712A2.591,2.591,0,0,0,8.39,5.736a2.345,2.345,0,0,0-1.2.257,3.462,3.462,0,0,0-.856.77,3.408,3.408,0,0,0-.856,2.227l.084.856a14.471,14.471,0,0,0,1.285,4.408,60.353,60.353,0,0,0,3.682,6.719A7.684,7.684,0,0,1,11.214,22Z"
              transform="translate(0 0.148)" fill="#ff9464"/>
        <path id="Shape" d="M14.383,45.46l-.771-4.965H6.336L5.65,45.46H0L6.763,0h6.422l6.762,45.46Z"
              transform="translate(23.319 0.148)" fill="#ff9464"/>
        <path id="Shape-2" data-name="Shape"
              d="M.086,45.63,0,0H6.08a10.443,10.443,0,0,1,7.96,3.512,10.263,10.263,0,0,1,2.141,3.423,10.324,10.324,0,0,1,.769,3.938,15.516,15.516,0,0,1-.513,3.938q-.255.941-.556,1.885a5.573,5.573,0,0,1-.9,1.712,15.685,15.685,0,0,1-3.169,3.423,8.55,8.55,0,0,1-5.651,1.713h-.6V45.63Z"
              transform="translate(51.1 0.062)" fill="#ff9464"/>
        <path id="Path-2" data-name="Path" d="M5.48,0V45.63H0V0Z" transform="translate(75.909 0.062)" fill="#ff9464"/>
        <path id="Path-3" data-name="Path"
              d="M15.752,40.066l-.084,5.564H0V0H15.752V5.65H5.564v9.931h8.047v5.65H5.564V40.067H15.752Z"
              transform="translate(89.313 0.062)" fill="#ff9464"/>
        <path id="Path-4" data-name="Path" d="M21.745.084V45.46H16.009L5.736,14.3V45.46H0V0H5.736L16.009,25.084v-25Z"
              transform="translate(113.671 0.148)" fill="#ff9464"/>
        <path id="Path-5" data-name="Path"
              d="M5.65,8.7V36.823a3.4,3.4,0,0,0,.856,2.221,2.764,2.764,0,0,0,2.313.94,2.99,2.99,0,0,0,1.968-.683,4.267,4.267,0,0,0,.642-.856,3.131,3.131,0,0,0,.214-1.709v-.086l5.48,1.2V38.7a6.424,6.424,0,0,1-.515,2.563,8.142,8.142,0,0,1-1.539,2.137,8.364,8.364,0,0,1-3,1.709,8.5,8.5,0,0,1-3.253.383,9,9,0,0,1-3.169-.853,8.39,8.39,0,0,1-2.74-2.1l-.257-.34A10.02,10.02,0,0,1,0,35.2V10.324A10.023,10.023,0,0,1,2.654,3.316l.257-.342A8.433,8.433,0,0,1,5.65.88,9.05,9.05,0,0,1,8.819.025,8.532,8.532,0,0,1,12.072.41a8.335,8.335,0,0,1,3,1.709,8.2,8.2,0,0,1,1.539,2.137,6.046,6.046,0,0,1,.515,2.563v.428l-5.48,1.026a4.117,4.117,0,0,0-.3-1.368,1.924,1.924,0,0,0-.556-.685,3,3,0,0,0-1.968-.685,2.772,2.772,0,0,0-2.313.942A3.4,3.4,0,0,0,5.65,8.7Z"
              transform="translate(144.139 0.08)" fill="#ff9464"/>
        <path id="Path-6" data-name="Path"
              d="M14.424,0,10.417,23.505,5.342,0H0L8.28,34.724,6.411,45.141h5.369L19.739,0Z"
              transform="translate(166.827 0.195)" fill="#ff9464"/>
        <path id="Path-7" data-name="Path" d="M5.315,45.141H0L7.959,0h5.369Z" transform="translate(186.62 0.195)"
              fill="#ff7261"/>
      </g>
      <g id="Group-2" data-name="Group" transform="translate(55 0)">
        <path id="Path-8" data-name="Path" d="M14.724,0A44.884,44.884,0,0,0,25.483,73.715L28.412,57.4Z"
              transform="translate(0.25 11.451)" fill="#ff7261"/>
        <path id="Path-9" data-name="Path"
              d="M15.575,0,0,88.329a44.893,44.893,0,0,0,15.843.5L30.638,4.93A44.576,44.576,0,0,0,15.575,0Z"
              transform="translate(35.792 0.255)" fill="#ff7261"/>
        <path id="Path-10" data-name="Path" d="M16.876,0A44.581,44.581,0,0,0,0,5.09L8.946,46.525Z"
              transform="translate(23.965 0.021)" fill="#ff9464"/>
        <path id="Path-11" data-name="Path"
              d="M27.242,32.66A44.739,44.739,0,0,0,13.125,0L0,73.933A44.882,44.882,0,0,0,27.242,32.66Z"
              transform="translate(62.758 12.028)" fill="#ff7261"/>
      </g>
    </g>
  </g>
</svg>
