<svg width="16" height="16" viewBox="0 0 16 16" fill="none" xmlns="http://www.w3.org/2000/svg">
<path d="M15 14V8H13V14H11V8H9V14H7V8H5V14H3V8H1V14H0V16H16V14H15Z" fill="#FF7261"/>
<path fill-rule="evenodd" clip-rule="evenodd" d="M8.4 0.0999023L15.4 3.0999C15.8 3.1999 16 3.5999 16 3.9999V5.9999C16 6.5999 15.6 6.9999 15 6.9999H1C0.4 6.9999 0 6.5999 0 5.9999V3.9999C0 3.5999 0.2 3.1999 0.6 3.0999L7.6 0.0999023C7.9 -9.76548e-05 8.1 -9.76548e-05 8.4 0.0999023ZM7 3.9999C7 4.5999 7.4 4.9999 8 4.9999C8.6 4.9999 9 4.5999 9 3.9999C9 3.3999 8.6 2.9999 8 2.9999C7.4 2.9999 7 3.3999 7 3.9999Z" fill="#FF9464"/>
</svg>
