<svg width="16" height="14" viewBox="0 0 16 14" fill="none" xmlns="http://www.w3.org/2000/svg">
<path fill-rule="evenodd" clip-rule="evenodd" d="M11.5 0.000226044C12.6939 -0.00143859 13.8391 0.472913 14.682 1.31823C15.526 2.16214 16.0001 3.30674 16.0001 4.50023C16.0001 5.69371 15.526 6.83831 14.682 7.68223L8.00005 14.0002L1.31805 7.68223C0.031041 6.39523 -0.353968 4.45969 0.342554 2.77815C1.03908 1.0966 2.67996 0.000210282 4.50005 0.000226044C5.86931 -0.008727 7.16407 0.622749 8.00005 1.70723C8.83542 0.622008 10.1306 -0.0096594 11.5 0.000226044ZM8.00005 11.2472L13.282 6.25123H13.285C13.9903 5.5325 14.1956 4.46078 13.8057 3.53234C13.4159 2.60389 12.507 1.99997 11.5 2.00023C10.062 2.00023 9.18705 2.68123 8.00005 4.62523C6.81205 2.68123 5.93705 2.00023 4.50005 2.00023C3.4948 2.00155 2.58813 2.60484 2.19863 3.53156C1.80913 4.45828 2.01258 5.52816 2.71505 6.24723L8.00005 11.2472Z" fill="#FF9464"/>
</svg>
