<svg width="16" height="14" viewBox="0 0 16 14" fill="none" xmlns="http://www.w3.org/2000/svg">
    <path d="M3 4H1V1C1 0.734784 1.10536 0.48043 1.29289 0.292893C1.48043 0.105357 1.73478 0 2 0L5 0V2H3V4Z"
          fill="#FF9464"/>
    <path d="M15 4H13V2H11V0H14C14.2652 0 14.5196 0.105357 14.7071 0.292893C14.8946 0.48043 15 0.734784 15 1V4Z"
          fill="#FF9464"/>
    <path d="M14 14H11V12H13V10H15V13C15 13.2652 14.8946 13.5196 14.7071 13.7071C14.5196 13.8946 14.2652 14 14 14Z"
          fill="#FF9464"/>
    <path d="M5 14H2C1.73478 14 1.48043 13.8946 1.29289 13.7071C1.10536 13.5196 1 13.2652 1 13V10H3V12H5V14Z"
          fill="#FF9464"/>
    <path d="M16 6H0V8H16V6Z" fill="#FF7261"/>
</svg>
