<svg width="16" height="16" viewBox="0 0 16 16" fill="none" xmlns="http://www.w3.org/2000/svg">
<path fill-rule="evenodd" clip-rule="evenodd" d="M0 7C0 10.86 3.14 14 7 14C10.86 14 14 10.86 14 7C14 3.14 10.86 0 7 0C3.14 0 0 3.14 0 7ZM2 7C2 4.243 4.243 2 7 2C9.757 2 12 4.243 12 7C12 9.757 9.757 12 7 12C4.243 12 2 9.757 2 7Z" fill="#FF9464"/>
<path d="M15.7069 14.2929L13.3139 11.8999C12.9029 12.4289 12.4289 12.9029 11.8999 13.3139L14.2929 15.7069C14.4879 15.9019 14.7439 15.9999 14.9999 15.9999C15.2559 15.9999 15.5119 15.9019 15.7069 15.7069C16.0979 15.3159 16.0979 14.6839 15.7069 14.2929Z" fill="#FF7261"/>
</svg>
