<svg width="16" height="16" viewBox="0 0 16 16" fill="none" xmlns="http://www.w3.org/2000/svg">
<path fill-rule="evenodd" clip-rule="evenodd" d="M5.13002 5.693L5.47302 7H7.53002L5.23002 0H2.71702L0.442017 7H2.51202L2.86502 5.693H5.13002ZM4.43802 3L4.73902 4.149L3.25402 4.145C3.54268 3.04967 3.72935 2.31633 3.81402 1.945C3.89868 1.57367 3.95502 1.307 3.98302 1.145C4.01702 1.32 4.08302 1.61 4.18302 2.013C4.28302 2.416 4.36902 2.745 4.43802 3Z" fill="#FF7261"/>
<path d="M6.71399 16H1.26099V14.831L4.29199 10.531H1.33299V9H6.63799V10.164L3.60699 14.473H6.71399V16Z" fill="#FF7261"/>
<path d="M13 11V0H11V11H8L12 16L16 11H13Z" fill="#FF9464"/>
</svg>
