<svg width="22" height="24" viewBox="0 0 22 24" fill="none" xmlns="http://www.w3.org/2000/svg">
<path d="M20.354 16.487C19.016 15.981 18.121 14.766 18.02 13.317C17.921 11.905 18.613 10.651 19.871 9.96204L20.917 9.38904L20.17 8.45904C18.915 6.89604 17.119 5.96204 15.366 5.96204C14.151 5.96204 13.308 6.28004 12.631 6.53604C12.153 6.71704 11.776 6.85904 11.362 6.85904C10.89 6.85904 10.424 6.69304 9.88398 6.50104C9.17598 6.24904 8.37398 5.96304 7.34398 5.96304C5.35398 5.96304 3.34698 7.15104 2.10698 9.06104C0.255976 11.91 0.763976 16.795 3.31498 20.677C4.32598 22.215 5.74298 23.982 7.74998 24C7.76298 24 7.77598 24 7.78898 24C9.43198 24 9.79198 23.124 11.387 23.114C13.129 23.196 13.349 24.007 14.976 23.996C16.937 23.978 18.351 22.225 19.475 20.512C20.139 19.505 20.396 18.978 20.913 17.834L21.351 16.864L20.354 16.487Z" fill="#90A1A6"/>
<path d="M14.0999 3.45002C14.7499 2.61602 15.2429 1.43902 15.0639 0.236023C14.0019 0.309023 12.7619 0.984023 12.0369 1.86402C11.3789 2.66302 10.8359 3.84702 11.0469 4.99902C12.2049 5.03502 13.4039 4.34302 14.0999 3.45002Z" fill="#90A1A6"/>
</svg>
